#!OML:ASF E:\Steps\Project 1\Capture day 1\Session 2\Subject.ASF
:FULLY-SPECIFIED
:DEGREES
398
root 11.9918 17.1302 17.1609 -153.461 -0.187141 178.203
lowerback -28.6428 -2.02867 -6.68434
upperback 0.814846 -0.77521 0.213317
thorax 16.2751 -1.03492 3.54768
lowerneck -2.12623 -2.57324 -0.899545
upperneck 20.1866 -2.84685 4.80315
head 6.55534 -0.498416 1.57858
rclavicle 1.09332e-015 1.11319e-014
rhumerus -40.4747 -17.3714 -74.4369
rradius 36.375
rwrist -2.6422
rhand -7.87107 -50.4386
rfingers 7.12502
rthumb 18.0329 -79.6226
lclavicle 1.09332e-015 1.11319e-014
lhumerus -30.2544 4.08174 80.7509
lradius 27.8615
lwrist 0.243929
lhand -21.1913 -11.3016
lfingers 7.12502
lthumb 5.18962 18.6149
rfemur -23.6488 6.59251 18.1641
rtibia 6.31294
rfoot -17.5036 -5.0226
rtoes -24.6297
lfemur -24.047 -7.60653 -22.4174
ltibia 6.86876
lfoot -5.79745 -5.39959
ltoes -28.1433
399
root 11.9983 17.1312 17.163 -153.448 -0.174994 178.197
lowerback -28.5853 -2.10103 -6.73706
upperback 0.780679 -0.872753 0.293074
thorax 16.2201 -1.08348 3.62575
lowerneck -2.30399 -2.42337 -0.969467
upperneck 20.2012 -2.62886 4.65668
head 6.58336 -0.414949 1.55532
rclavicle 9.0944e-015 -9.14409e-015
rhumerus -40.4192 -16.9194 -74.5017
rradius 36.5443
rwrist -2.97075
rhand -7.85973 -51.2905
rfingers 7.12502
rthumb 18.0438 -80.4735
lclavicle 9.0944e-015 -9.14409e-015
lhumerus -30.2915 4.31598 80.8187
lradius 27.9245
lwrist 0.132449
lhand -21.2337 -11.2874
lfingers 7.12502
lthumb 5.14867 18.63
rfemur -23.6505 6.62282 18.1762
rtibia 6.25582
rfoot -17.4291 -5.0012
rtoes -24.2848
lfemur -24.0856 -7.63173 -22.367
ltibia 6.88112
lfoot -5.86988 -5.31158
ltoes -27.6154
400
root 12.0047 17.1315 17.1657 -153.401 -0.192918 178.224
lowerback -28.5328 -2.14226 -6.75309
upperback 0.711058 -0.945423 0.364469
thorax 16.122 -1.11735 3.68415
lowerneck -2.45805 -2.68792 -1.35092
upperneck 20.0891 -3.04211 4.91587
head 6.5967 -0.635906 1.67297
rclavicle 1.98785e-015 1.03368e-014
rhumerus -40.4341 -16.7017 -74.4754
rradius 36.619
rwrist -3.05827
rhand -7.4514 -52.0057
rfingers 7.12502
rthumb 18.4366 -81.152
lclavicle 1.98785e-015 1.03368e-014
lhumerus -30.4091 4.40521 80.9175
lradius 28.0538
lwrist 0.0121583
lhand -21.5259 -11.0316
lfingers 7.12502
lthumb 4.86656 18.8925
rfemur -23.7464 6.63076 18.245
rtibia 6.32695
rfoot -17.4551 -5.05261
rtoes -24.1874
lfemur -24.1628 -7.68815 -22.2537
ltibia 6.85337
lfoot -5.75088 -5.33812
ltoes -26.2583
401
root 12.0083 17.1303 17.1668 -153.367 -0.164436 178.19
lowerback -28.5157 -2.13984 -6.7842
upperback 0.668629 -0.938499 0.357322
thorax 16.0619 -1.1157 3.69562
lowerneck -2.26132 -2.44879 -1.13472
upperneck 19.6054 -2.72133 4.69089
head 6.39053 -0.511876 1.57996
rclavicle 6.65929e-015 2.18663e-015
rhumerus -40.5066 -16.6518 -74.4562
rradius 36.7183
rwrist -3.08704
rhand -7.04526 -51.7617
rfingers 7.12502
rthumb 18.8273 -80.8706
lclavicle 6.65929e-015 2.18663e-015
lhumerus -30.4442 4.33969 80.9966
lradius 28.1523
lwrist 0.102625
lhand -21.8693 -10.8581
lfingers 7.12502
lthumb 4.53496 19.0734
rfemur -23.8183 6.40396 18.2537
rtibia 6.3573
rfoot -17.46 -4.87354
rtoes -24.1415
lfemur -24.209 -7.86417 -22.222
ltibia 6.8475
lfoot -5.70036 -5.17285
ltoes -25.6632
402
root 12.0097 17.1303 17.1644 -153.433 -0.059083 178.132
lowerback -28.5295 -2.11387 -6.79555
upperback 0.691837 -0.889489 0.307494
thorax 16.0891 -1.09395 3.66643
lowerneck -2.01954 -2.15926 -1.03768
upperneck 19.1006 -2.34597 4.63702
head 6.17396 -0.355673 1.56465
rclavicle -1.19271e-015 -3.77691e-015
rhumerus -40.5129 -16.599 -74.4702
rradius 36.7792
rwrist -3.17147
rhand -7.37374 -51.2225
rfingers 7.12502
rthumb 18.5113 -80.3617
lclavicle -1.19271e-015 -3.77691e-015
lhumerus -30.4435 4.35606 80.9885
lradius 28.1871
lwrist 0.158263
lhand -21.8989 -11.1267
lfingers 7.12502
lthumb 4.50641 18.8053
rfemur -23.7706 6.22302 18.2012
rtibia 6.3603
rfoot -17.4501 -4.6426
rtoes -24.2444
lfemur -24.0818 -7.99874 -22.2926
ltibia 6.79301
lfoot -5.8159 -4.89389
ltoes -27.1843
403
root 12.013 17.1318 17.1635 -153.532 0.00533925 178.117
lowerback -28.4603 -2.0888 -6.78882
upperback 0.678547 -0.860882 0.28105
thorax 16.0359 -1.07807 3.64616
lowerneck -1.76158 -2.41048 -1.26778
upperneck 18.5951 -2.76002 4.99295
head 5.98952 -0.575363 1.68796
rclavicle 3.18055e-015 -1.53064e-014
rhumerus -40.5701 -16.5686 -74.4546
rradius 36.8066
rwrist -3.2293
rhand -7.88303 -50.2369
rfingers 7.12502
rthumb 18.0214 -79.422
lclavicle 3.18055e-015 -1.53064e-014
lhumerus -30.555 4.29911 81.0013
lradius 28.2124
lwrist 0.00768405
lhand -21.842 -11.3519
lfingers 7.12502
lthumb 4.5613 18.5789
rfemur -23.7146 6.33062 18.1694
rtibia 6.44755
rfoot -17.4986 -4.71742
rtoes -24.5308
lfemur -23.9199 -8.02982 -22.3222
ltibia 6.72046
lfoot -5.87565 -4.81024
ltoes -28.0115
404
root 12.0178 17.1341 17.1614 -153.64 -0.0651237 178.084
lowerback -28.2165 -2.11469 -6.86445
upperback 0.572827 -0.902997 0.307402
thorax 15.7985 -1.09647 3.70277
lowerneck -1.53539 -2.35099 -1.18123
upperneck 18.3638 -2.66521 4.85549
head 5.87161 -0.544812 1.63443
rclavicle -7.85199e-015 2.98177e-015
rhumerus -40.7771 -16.544 -74.3408
rradius 36.9013
rwrist -3.20459
rhand -8.08453 -51.414
rfingers 7.12502
rthumb 17.8275 -80.6168
lclavicle -7.85199e-015 2.98177e-015
lhumerus -30.7632 4.24373 81.0688
lradius 28.2149
lwrist -0.18404
lhand -21.9674 -11.3849
lfingers 7.12502
lthumb 4.44021 18.5486
rfemur -23.5693 6.48581 18.1467
rtibia 6.44773
rfoot -17.5257 -4.96053
rtoes -24.8658
lfemur -23.8003 -8.15303 -22.3091
ltibia 6.72372
lfoot -5.879 -4.82929
ltoes -27.7662
405
root 12.0241 17.1374 17.1577 -153.757 -0.197657 177.998
lowerback -28.3698 -2.16392 -6.87165
upperback 0.760824 -0.915376 0.217403
thorax 16.0958 -1.10537 3.60163
lowerneck -1.47545 -2.25545 -1.13283
upperneck 17.7955 -2.60317 5.00481
head 5.68169 -0.536029 1.67087
rclavicle -1.28713e-014 -1.11319e-014
rhumerus -40.5148 -16.8804 -74.4642
rradius 36.9124
rwrist -2.99699
rhand -7.72946 -51.9698
rfingers 7.12502
rthumb 18.1691 -81.1412
lclavicle -1.28713e-014 -1.11319e-014
lhumerus -30.4759 4.18624 80.9882
lradius 28.1652
lwrist -0.205834
lhand -22.089 -11.5193
lfingers 7.12502
lthumb 4.32285 18.4165
rfemur -23.3109 6.54177 18.1116
rtibia 6.29936
rfoot -17.5141 -5.21277
rtoes -25.2928
lfemur -23.7004 -8.34713 -22.3324
ltibia 6.81065
lfoot -5.92781 -4.82474
ltoes -27.855
406
root 12.0314 17.1389 17.1579 -153.779 -0.262241 177.973
lowerback -28.3505 -2.17182 -6.85359
upperback 0.782126 -0.920086 0.147449
thorax 16.1103 -1.10324 3.51298
lowerneck -1.49746 -2.2737 -1.15583
upperneck 17.2875 -2.70194 5.22595
head 5.53269 -0.602538 1.73328
rclavicle 4.07509e-015 -1.15295e-014
rhumerus -40.4028 -17.107 -74.5695
rradius 36.8823
rwrist -2.8635
rhand -7.64955 -51.8656
rfingers 7.12502
rthumb 18.246 -81.0299
lclavicle 4.07509e-015 -1.15295e-014
lhumerus -30.406 3.97242 80.9249
lradius 28.1707
lwrist 0.0340754
lhand -22.0818 -11.6559
lfingers 7.12502
lthumb 4.32981 18.2798
rfemur -23.2097 6.51033 18.159
rtibia 6.19984
rfoot -17.5337 -5.2437
rtoes -25.2331
lfemur -23.7055 -8.29307 -22.3457
ltibia 6.89173
lfoot -5.93778 -4.88901
ltoes -28.1338
407
root 12.0363 17.1391 17.1593 -153.739 -0.291927 178.034
lowerback -28.3395 -2.14777 -6.76045
upperback 0.742744 -0.923011 0.125809
thorax 16.0569 -1.09525 3.43686
lowerneck -1.56489 -2.33577 -1.12932
upperneck 16.9191 -2.83511 5.30588
head 5.43461 -0.684827 1.74238
rclavicle -3.72721e-015 1.55052e-014
rhumerus -40.3697 -17.192 -74.6295
rradius 36.8935
rwrist -2.79858
rhand -7.71074 -51.9798
rfingers 7.12502
rthumb 18.1871 -81.1496
lclavicle -3.72721e-015 1.55052e-014
lhumerus -30.3846 3.75361 80.917
lradius 28.1642
lwrist 0.43736
lhand -21.8698 -11.8005
lfingers 7.12502
lthumb 4.53449 18.1309
rfemur -23.2035 6.53944 18.2646
rtibia 6.10036
rfoot -17.4928 -5.21918
rtoes -24.9723
lfemur -23.7859 -8.12923 -22.2846
ltibia 6.94343
lfoot -5.91047 -4.98301
ltoes -28.3292
408
root 12.0397 17.1397 17.1595 -153.73 -0.286787 178.038
lowerback -28.3584 -2.14015 -6.74001
upperback 0.73373 -0.917924 0.108982
thorax 16.054 -1.09107 3.40863
lowerneck -1.66654 -2.3934 -1.18353
upperneck 16.756 -2.94444 5.39671
head 5.40696 -0.747304 1.77152
rclavicle -2.28602e-015 1.13307e-014
rhumerus -40.3788 -17.2691 -74.6202
rradius 36.9543
rwrist -2.71554
rhand -7.55656 -52.1662
rfingers 7.12502
rthumb 18.3355 -81.322
lclavicle -2.28602e-015 1.13307e-014
lhumerus -30.3085 3.74526 80.9068
lradius 28.0548
lwrist 0.502585
lhand -21.6743 -11.8955
lfingers 7.12502
lthumb 4.72331 18.0318
rfemur -23.1816 6.48359 18.2971
rtibia 6.03365
rfoot -17.4073 -5.17009
rtoes -25.3289
lfemur -23.8109 -8.1077 -22.271
ltibia 6.95785
lfoot -5.90119 -5.0295
ltoes -27.6878
